<svg width="1920" height="1164" viewBox="0 0 1920 1164" fill="none" xmlns="http://www.w3.org/2000/svg">
<path d="M-483.162 602.545C-462.503 545.665 -393.469 435.774 -282.608 451.251C-144.033 470.598 8.92699 637.539 161.293 553.946C313.659 470.353 317.813 225.381 478.901 181.117C639.989 136.853 855.75 367.504 1053.41 325.839C1251.06 284.175 1263.75 128.055 1418.92 35.5917C1574.09 -56.8718 1900.08 76.8902 1979.85 -39.3671" stroke="url(#paint0_linear_2222_4449)" stroke-opacity="0.4" stroke-width="20"/>
<path d="M-10.3609 1571.12C-21.3909 1412.97 68.8741 1089.42 518.175 1060.44C1079.8 1024.21 1136.06 1163.8 1384.3 961.949C1632.54 760.094 1613.26 523.111 1957.36 607.314C2301.45 691.517 2548.52 717.023 2758.43 579.114C2968.35 441.205 2905.45 280.307 3289.73 338.695" stroke="url(#paint1_linear_2222_4449)" stroke-opacity="0.4" stroke-width="20"/>
<path d="M-461.758 650.21C-442.093 592.086 -375.328 481.3 -264.816 490.824C-127.867 503.715 26.9506 658.396 181.645 578.923C352.169 502.27 354.333 276.027 521.002 225.509C687.672 174.992 897.587 380.993 1100.3 346.849C1303.01 312.706 1324.44 167.87 1482.42 74.0422C1640.39 -19.7857 1951.29 95.7055 2043.03 -8.85963" stroke="url(#paint2_linear_2222_4449)" stroke-opacity="0.4" stroke-width="20"/>
<path d="M-440.242 697.703C-421.598 638.351 -357.113 526.709 -247.077 530.29C-111.888 536.768 44.5135 679.172 201.657 603.749C390.525 533.585 391.151 326.081 563.274 269.17C735.396 212.26 938.905 393.786 1146.88 367.035C1354.85 340.284 1385.29 206.497 1546.07 111.223C1706.85 15.9499 2002.26 113.555 2106.26 20.3753" stroke="url(#paint3_linear_2222_4449)" stroke-opacity="0.4" stroke-width="20"/>
<path d="M-418.614 745.023C-401.018 684.459 -338.824 571.999 -229.39 569.652C-96.0966 569.761 61.6167 699.873 221.329 628.43C428.719 564.301 428.258 375.536 605.704 312.095C783.149 248.653 979.693 405.893 1193.13 386.401C1406.57 366.909 1446.29 243.931 1609.86 147.131C1773.43 50.3314 2052.98 130.442 2169.52 48.3355" stroke="url(#paint4_linear_2222_4449)" stroke-opacity="0.4" stroke-width="20"/>
<path d="M-396.875 792.17C-380.354 730.411 -320.461 617.172 -211.757 608.912C-80.4918 602.701 78.2597 720.51 240.659 652.973C466.74 594.422 465.644 424.391 648.279 354.282C830.914 284.174 1019.94 417.324 1239.05 404.954C1458.16 392.585 1507.42 280.172 1673.77 181.765C1840.12 83.3568 2103.42 146.371 2232.79 75.0205" stroke="url(#paint5_linear_2222_4449)" stroke-opacity="0.4" stroke-width="20"/>
<path d="M-375.026 839.142C-359.606 776.206 -302.023 662.227 -194.175 648.072C-65.071 635.589 94.4457 741.092 259.648 677.385C504.583 623.951 503.302 472.64 690.99 395.731C878.679 318.821 1059.64 428.089 1284.62 422.701C1509.6 417.313 1568.67 315.216 1737.77 215.12C1906.88 115.024 2153.57 161.346 2296.04 100.429" stroke="url(#paint6_linear_2222_4449)" stroke-opacity="0.4" stroke-width="20"/>
<path d="M-353.055 885.943C-338.761 821.846 -283.497 707.166 -176.631 687.136C-49.8198 668.434 110.189 761.631 278.31 701.675C542.251 652.896 541.235 520.28 733.839 436.439C926.444 352.599 1098.79 438.2 1329.84 439.649C1560.89 441.098 1630.02 349.064 1801.87 247.198C1973.72 145.332 2203.43 175.374 2359.27 124.563" stroke="url(#paint7_linear_2222_4449)" stroke-opacity="0.4" stroke-width="20"/>
<path d="M-330.962 932.566C-317.82 867.327 -264.885 751.986 -159.126 726.104C-34.7383 701.236 125.489 782.132 296.643 725.847C579.735 681.256 579.433 567.305 776.813 476.404C974.192 385.503 1137.38 447.665 1374.7 455.802C1612.02 463.94 1691.45 381.709 1866.02 277.994C2040.6 174.278 2252.99 188.457 2422.46 147.419" stroke="url(#paint8_linear_2222_4449)" stroke-opacity="0.4" stroke-width="20"/>
<path d="M-308.749 979.011C-296.785 912.648 -246.185 796.686 -141.659 764.975C-19.8246 733.998 140.349 802.602 314.647 749.907C617.027 709.034 617.888 613.709 819.9 515.621C1021.91 417.533 1175.4 456.491 1419.19 471.166C1662.97 485.84 1752.95 413.15 1930.23 307.504C2107.5 201.858 2302.22 200.597 2485.58 168.996" stroke="url(#paint9_linear_2222_4449)" stroke-opacity="0.4" stroke-width="20"/>
<path d="M-286.416 1025.28C-275.655 957.81 -227.398 841.265 -124.229 803.753C-5.07698 766.725 154.77 823.052 332.323 773.861C654.118 736.235 656.591 659.489 863.09 554.09C1069.59 448.691 1212.85 464.691 1463.29 485.746C1713.73 506.802 1814.49 443.385 1994.45 335.729C2174.41 228.073 2351.12 211.8 2548.61 189.294" stroke="url(#paint10_linear_2222_4449)" stroke-opacity="0.4" stroke-width="20"/>
<path d="M-263.968 1071.36C-254.434 1002.81 -208.527 885.721 -106.84 842.435C9.50237 799.418 168.751 843.487 349.668 797.714C690.997 762.86 695.528 704.637 906.367 591.806C1117.21 478.975 1249.71 472.271 1506.99 499.548C1764.27 526.825 1876.05 472.41 2058.67 362.664C2241.29 252.917 2399.66 222.069 2611.53 208.311" stroke="url(#paint11_linear_2222_4449)" stroke-opacity="0.4" stroke-width="20"/>
<path d="M-241.403 1117.26C-233.121 1047.64 -189.569 930.053 -89.488 881.025C23.9182 832.081 182.297 863.916 366.685 821.471C727.659 788.914 734.694 749.151 949.722 628.769C1164.75 508.386 1285.98 479.243 1550.28 512.579C1814.58 545.914 1937.62 500.225 2122.88 388.309C2308.13 276.392 2447.83 231.409 2674.32 226.049" stroke="url(#paint12_linear_2222_4449)" stroke-opacity="0.4" stroke-width="20"/>
<path d="M-218.725 1162.97C-211.719 1092.31 -170.527 974.26 -72.1759 919.523C38.1686 864.717 195.405 884.347 383.371 845.14C764.092 814.4 774.075 793.026 993.141 664.975C1212.21 536.925 1321.64 485.617 1593.15 524.844C1864.66 564.072 1999.17 526.828 2187.03 412.662C2374.9 298.497 2495.62 239.826 2736.95 242.507" stroke="url(#paint13_linear_2222_4449)" stroke-opacity="0.4" stroke-width="20"/>
<path d="M-195.935 1208.5C-190.229 1136.82 -151.402 1018.34 -54.9029 957.927C52.2556 897.327 208.08 904.785 399.728 868.723C800.287 839.319 813.663 836.254 1036.61 700.422C1259.56 564.59 1356.68 491.399 1635.57 536.348C1914.47 581.298 2060.68 552.216 2251.12 435.722C2441.57 319.228 2543 247.321 2799.4 257.684" stroke="url(#paint14_linear_2222_4449)" stroke-opacity="0.4" stroke-width="20"/>
<path d="M-173.033 1253.83C-168.65 1181.15 -132.194 1062.29 -37.6682 996.238C66.1811 929.913 220.324 925.238 415.755 892.226C836.238 863.675 853.447 878.831 1080.12 735.106C1306.8 591.382 1391.09 496.599 1677.55 547.098C1964.01 597.596 2122.13 576.387 2315.13 457.486C2508.12 338.585 2589.97 253.899 2861.66 271.581" stroke="url(#paint15_linear_2222_4449)" stroke-opacity="0.4" stroke-width="20"/>
<path d="M-150.023 1298.97C-146.987 1225.31 -112.904 1106.1 -20.4739 1034.46C79.9443 962.477 232.135 945.713 431.451 915.653C871.934 887.471 893.416 920.753 1123.66 769.027C1353.91 617.301 1424.87 501.229 1719.07 557.099C2013.26 612.969 2183.5 599.34 2379.02 477.954C2574.53 356.568 2636.51 259.567 2923.7 284.198" stroke="url(#paint16_linear_2222_4449)" stroke-opacity="0.4" stroke-width="20"/>
<path d="M-126.906 1343.92C-125.24 1269.29 -93.5322 1149.79 -3.31896 1072.58C93.5475 995.026 243.519 966.219 446.817 939.012C907.366 910.713 933.561 962.018 1167.21 802.184C1400.87 642.35 1458 505.298 1760.11 566.36C2062.21 627.422 2244.77 621.077 2442.77 497.129C2640.77 373.18 2682.6 264.33 2985.49 295.54" stroke="url(#paint17_linear_2222_4449)" stroke-opacity="0.4" stroke-width="20"/>
<path d="M-103.699 1388.82C-103.425 1313.26 -74.0954 1193.49 13.7812 1110.77C106.976 1027.71 254.46 986.915 461.839 962.46C942.512 933.555 973.855 1002.77 1210.75 834.727C1447.65 666.683 1490.47 508.97 1800.64 575.04C2110.82 641.11 2305.9 641.75 2506.36 515.161C2706.81 388.571 2728.2 268.346 3047 305.758" stroke="url(#paint18_linear_2222_4449)" stroke-opacity="0.4" stroke-width="20"/>
<path d="M-80.4406 1434.15C-81.5812 1357.67 -54.6308 1237.68 30.7897 1149.5C120.196 1061.01 264.926 1008.28 476.479 986.476C977.326 956.475 1014.25 1043.49 1254.23 867.129C1494.21 690.773 1522.22 512.728 1840.63 583.619C2159.04 654.51 2366.84 661.831 2569.71 532.524C2772.58 403.217 2773.28 272.095 3108.17 315.329" stroke="url(#paint19_linear_2222_4449)" stroke-opacity="0.4" stroke-width="20"/>
<path d="M-57.0986 1479.77C-59.6756 1402.4 -35.106 1282.22 47.7398 1188.63C133.24 1094.79 274.951 1030.19 490.772 1010.93C1011.83 979.343 1054.77 1084.02 1297.67 899.254C1540.56 714.489 1553.28 516.446 1880.09 591.969C2206.9 667.492 2427.59 681.186 2632.85 549.086C2838.1 416.985 2817.85 275.447 3169.01 324.121" stroke="url(#paint20_linear_2222_4449)" stroke-opacity="0.4" stroke-width="20"/>
<path d="M-32.6765 1527.46C-36.7114 1449.22 -14.5228 1328.9 65.6305 1229.93C147.109 1130.83 285.536 1054.43 505.717 1037.61C1047.02 1003.94 1096.41 1126.15 1342.05 932.881C1587.69 739.612 1584.65 521.918 1920.01 601.88C2255.36 681.841 2489.14 701.598 2696.74 566.627C2904.34 431.657 2862.89 280.19 3230.5 333.916" stroke="url(#paint21_linear_2222_4449)" stroke-opacity="0.4" stroke-width="20"/>
<defs>
<linearGradient id="paint0_linear_2222_4449" x1="951.989" y1="-363.732" x2="544.695" y2="926.91" gradientUnits="userSpaceOnUse">
<stop stop-color="#FFF500" stop-opacity="0.6"/>
<stop offset="1" stop-color="#FF79C9"/>
</linearGradient>
<linearGradient id="paint1_linear_2222_4449" x1="1675.77" y1="247.453" x2="1601.13" y2="1656.48" gradientUnits="userSpaceOnUse">
<stop stop-color="#FFF500" stop-opacity="0.6"/>
<stop offset="1" stop-color="#FF79C9"/>
</linearGradient>
<linearGradient id="paint2_linear_2222_4449" x1="986.859" y1="-328.234" x2="594.413" y2="969.584" gradientUnits="userSpaceOnUse">
<stop stop-color="#FFF500" stop-opacity="0.6"/>
<stop offset="1" stop-color="#FF79C9"/>
</linearGradient>
<linearGradient id="paint3_linear_2222_4449" x1="1021.75" y1="-293.372" x2="644.268" y2="1011.45" gradientUnits="userSpaceOnUse">
<stop stop-color="#FFF500" stop-opacity="0.6"/>
<stop offset="1" stop-color="#FF79C9"/>
</linearGradient>
<linearGradient id="paint4_linear_2222_4449" x1="1056.66" y1="-259.149" x2="694.25" y2="1052.51" gradientUnits="userSpaceOnUse">
<stop stop-color="#FFF500" stop-opacity="0.6"/>
<stop offset="1" stop-color="#FF79C9"/>
</linearGradient>
<linearGradient id="paint5_linear_2222_4449" x1="1091.57" y1="-225.562" x2="744.344" y2="1092.75" gradientUnits="userSpaceOnUse">
<stop stop-color="#FFF500" stop-opacity="0.6"/>
<stop offset="1" stop-color="#FF79C9"/>
</linearGradient>
<linearGradient id="paint6_linear_2222_4449" x1="1126.47" y1="-192.613" x2="794.539" y2="1132.18" gradientUnits="userSpaceOnUse">
<stop stop-color="#FFF500" stop-opacity="0.6"/>
<stop offset="1" stop-color="#FF79C9"/>
</linearGradient>
<linearGradient id="paint7_linear_2222_4449" x1="1161.37" y1="-160.301" x2="844.83" y2="1170.8" gradientUnits="userSpaceOnUse">
<stop stop-color="#FFF500" stop-opacity="0.6"/>
<stop offset="1" stop-color="#FF79C9"/>
</linearGradient>
<linearGradient id="paint8_linear_2222_4449" x1="1196.24" y1="-128.628" x2="895.2" y2="1208.6" gradientUnits="userSpaceOnUse">
<stop stop-color="#FFF500" stop-opacity="0.6"/>
<stop offset="1" stop-color="#FF79C9"/>
</linearGradient>
<linearGradient id="paint9_linear_2222_4449" x1="1231.07" y1="-97.5958" x2="945.64" y2="1245.58" gradientUnits="userSpaceOnUse">
<stop stop-color="#FFF500" stop-opacity="0.6"/>
<stop offset="1" stop-color="#FF79C9"/>
</linearGradient>
<linearGradient id="paint10_linear_2222_4449" x1="1265.87" y1="-67.2022" x2="996.136" y2="1281.74" gradientUnits="userSpaceOnUse">
<stop stop-color="#FFF500" stop-opacity="0.6"/>
<stop offset="1" stop-color="#FF79C9"/>
</linearGradient>
<linearGradient id="paint11_linear_2222_4449" x1="1300.6" y1="-37.4495" x2="1046.67" y2="1317.07" gradientUnits="userSpaceOnUse">
<stop stop-color="#FFF500" stop-opacity="0.6"/>
<stop offset="1" stop-color="#FF79C9"/>
</linearGradient>
<linearGradient id="paint12_linear_2222_4449" x1="1335.28" y1="-8.336" x2="1097.24" y2="1351.57" gradientUnits="userSpaceOnUse">
<stop stop-color="#FFF500" stop-opacity="0.6"/>
<stop offset="1" stop-color="#FF79C9"/>
</linearGradient>
<linearGradient id="paint13_linear_2222_4449" x1="1369.87" y1="20.1382" x2="1147.82" y2="1385.26" gradientUnits="userSpaceOnUse">
<stop stop-color="#FFF500" stop-opacity="0.6"/>
<stop offset="1" stop-color="#FF79C9"/>
</linearGradient>
<linearGradient id="paint14_linear_2222_4449" x1="1404.38" y1="47.9715" x2="1198.4" y2="1418.11" gradientUnits="userSpaceOnUse">
<stop stop-color="#FFF500" stop-opacity="0.6"/>
<stop offset="1" stop-color="#FF79C9"/>
</linearGradient>
<linearGradient id="paint15_linear_2222_4449" x1="1438.78" y1="75.164" x2="1248.98" y2="1450.13" gradientUnits="userSpaceOnUse">
<stop stop-color="#FFF500" stop-opacity="0.6"/>
<stop offset="1" stop-color="#FF79C9"/>
</linearGradient>
<linearGradient id="paint16_linear_2222_4449" x1="1473.08" y1="101.716" x2="1299.53" y2="1481.32" gradientUnits="userSpaceOnUse">
<stop stop-color="#FFF500" stop-opacity="0.6"/>
<stop offset="1" stop-color="#FF79C9"/>
</linearGradient>
<linearGradient id="paint17_linear_2222_4449" x1="1507.25" y1="127.631" x2="1350.04" y2="1511.68" gradientUnits="userSpaceOnUse">
<stop stop-color="#FFF500" stop-opacity="0.6"/>
<stop offset="1" stop-color="#FF79C9"/>
</linearGradient>
<linearGradient id="paint18_linear_2222_4449" x1="1541.29" y1="152.91" x2="1400.48" y2="1541.37" gradientUnits="userSpaceOnUse">
<stop stop-color="#FFF500" stop-opacity="0.6"/>
<stop offset="1" stop-color="#FF79C9"/>
</linearGradient>
<linearGradient id="paint19_linear_2222_4449" x1="1575.19" y1="177.55" x2="1450.81" y2="1570.84" gradientUnits="userSpaceOnUse">
<stop stop-color="#FFF500" stop-opacity="0.6"/>
<stop offset="1" stop-color="#FF79C9"/>
</linearGradient>
<linearGradient id="paint20_linear_2222_4449" x1="1608.93" y1="201.556" x2="1501.05" y2="1599.98" gradientUnits="userSpaceOnUse">
<stop stop-color="#FFF500" stop-opacity="0.6"/>
<stop offset="1" stop-color="#FF79C9"/>
</linearGradient>
<linearGradient id="paint21_linear_2222_4449" x1="1643.48" y1="226.839" x2="1552.17" y2="1630.55" gradientUnits="userSpaceOnUse">
<stop stop-color="#FFF500" stop-opacity="0.6"/>
<stop offset="1" stop-color="#FF79C9"/>
</linearGradient>
</defs>
</svg>
